<svg id="Layer_1" data-name="Layer 1" xmlns="http://www.w3.org/2000/svg" viewBox="0 0 373.99 254.88"><title>light-logo</title><path d="M490.13,177.9q-3.3,25.92-6.6,51.84c-.86,6.75-1.66,13.51-2.55,20.25-.48,3.66-.75,7.61-5.85,7.79s-6.34-3.43-7.08-7.38c-3.45-18.23-6.84-36.47-10.29-54.7a21.32,21.32,0,0,0-1.28-3.27c-2.14,4.47-4.06,8.31-5.81,12.22-1.58,3.54-3.9,5.41-8.07,5.24-6.65-.27-13.32-.19-20,0-2.77.07-3.68-.7-3.72-3.6-.1-8.49-.13-9.32,8.23-8.27,10.27,1.29,15.86-2.47,19-12.06,1.78-5.46,5-10.45,7.51-15.68,1.28-2.68,3.24-4.22,6.25-4,3.26.29,4.94,2.23,5.54,5.43,2.16,11.56,4.4,23.1,6.64,34.64a19.48,19.48,0,0,0,1.87,5.69q3-23.19,6-46.37c1.38-10.69,2.62-21.41,4.12-32.09.43-3.14,2.46-4.89,5.89-4.86,3.66,0,5.5,2,6.09,5.31,1.61,9.14,3.22,18.28,4.73,27.44,2.18,13.24,4.27,26.5,6.51,40.43,3-3.35,3.7-7.29,5.5-10.6,2-3.73,2.13-9.43,8.3-9.08,6,.34,6.1,5.89,7.56,9.86,3,8.07,5.55,16.27,8.65,25.51,2.89-5.37,5.42-9.74,7.61-14.27,1.89-3.92,4.73-5.68,9.07-5.6,7.66.13,15.33.21,23,0,3.4-.11,4.45,1.09,4,4.25a12.75,12.75,0,0,0,0,3.49c.51,3.47-.78,4.7-4.35,4.45-4.47-.32-9.06.43-13.46-.2-6.37-.92-9.57,1.82-12,7.36-2.62,6.08-6.12,11.78-9.18,17.67-1.44,2.76-3.46,4.4-6.74,4.06s-4.44-2.5-5.35-5.16c-3.12-9.07-6.28-18.12-9.78-28.2-2.9,6.78-5.62,12.74-8,18.84-1.46,3.76-3.64,6.83-7.82,6.2-4-.6-4.93-4.19-5.5-7.93-2.21-14.58-4.66-29.13-7-43.69C491.08,178.9,492,175.85,490.13,177.9Z" transform="translate(-322.36 -128.76)" style="fill:#ed2980"/><path d="M490.13,177.9c0-.86-.56-2.41.59-2.26,1.52.2,1.35,1.9,1.14,3.21Z" transform="translate(-322.36 -128.76)" style="fill:#f8b1d0"/><text transform="translate(1.16 217.35)" style="font-size:90px;fill:#fff;font-family:Crimson-Bold, Crimson;font-weight:700">AMBONS</text></svg>